<mxfile host="app.diagrams.net" modified="2023-03-08T21:04:08.375Z" agent="5.0 (Windows NT 10.0; Win64; x64) AppleWebKit/537.36 (KHTML, like Gecko) Chrome/110.0.0.0 Safari/537.36" etag="S1ztVMfnLzNlu34c4kq_" version="21.0.2" type="github">
  <diagram id="C5RBs43oDa-KdzZeNtuy" name="Page-1">
    <mxGraphModel dx="1467" dy="740" grid="1" gridSize="10" guides="1" tooltips="1" connect="1" arrows="1" fold="1" page="1" pageScale="1" pageWidth="827" pageHeight="1169" math="0" shadow="0">
      <root>
        <mxCell id="WIyWlLk6GJQsqaUBKTNV-0" />
        <mxCell id="WIyWlLk6GJQsqaUBKTNV-1" parent="WIyWlLk6GJQsqaUBKTNV-0" />
        <mxCell id="WIyWlLk6GJQsqaUBKTNV-2" value="" style="rounded=0;html=1;jettySize=auto;orthogonalLoop=1;fontSize=11;endArrow=block;endFill=0;endSize=8;strokeWidth=1;shadow=0;labelBackgroundColor=none;edgeStyle=orthogonalEdgeStyle;entryX=0.5;entryY=0;entryDx=0;entryDy=0;" parent="WIyWlLk6GJQsqaUBKTNV-1" source="WIyWlLk6GJQsqaUBKTNV-3" target="WIyWlLk6GJQsqaUBKTNV-7" edge="1">
          <mxGeometry relative="1" as="geometry" />
        </mxCell>
        <mxCell id="WIyWlLk6GJQsqaUBKTNV-3" value="Md Links&amp;nbsp;&lt;br&gt;Inicio" style="rounded=1;whiteSpace=wrap;html=1;fontSize=12;glass=0;strokeWidth=1;shadow=0;fillColor=#cdeb8b;strokeColor=#36393d;" parent="WIyWlLk6GJQsqaUBKTNV-1" vertex="1">
          <mxGeometry x="354" y="90" width="120" height="40" as="geometry" />
        </mxCell>
        <mxCell id="WIyWlLk6GJQsqaUBKTNV-4" value="No" style="rounded=0;html=1;jettySize=auto;orthogonalLoop=1;fontSize=11;endArrow=block;endFill=0;endSize=8;strokeWidth=1;shadow=0;labelBackgroundColor=none;edgeStyle=orthogonalEdgeStyle;exitX=0;exitY=0.5;exitDx=0;exitDy=0;entryX=0.5;entryY=0;entryDx=0;entryDy=0;" parent="WIyWlLk6GJQsqaUBKTNV-1" source="WIyWlLk6GJQsqaUBKTNV-10" target="amFgFXvFA-CJ1mFteOLE-128" edge="1">
          <mxGeometry x="-0.5839" y="-20" relative="1" as="geometry">
            <mxPoint as="offset" />
            <mxPoint x="150" y="310" as="sourcePoint" />
            <mxPoint x="80" y="720" as="targetPoint" />
            <Array as="points">
              <mxPoint x="80" y="350" />
            </Array>
          </mxGeometry>
        </mxCell>
        <mxCell id="WIyWlLk6GJQsqaUBKTNV-7" value="Validar&lt;br&gt;Path/Options" style="rounded=1;whiteSpace=wrap;html=1;fontSize=12;glass=0;strokeWidth=1;shadow=0;fillColor=#cdeb8b;strokeColor=#36393d;" parent="WIyWlLk6GJQsqaUBKTNV-1" vertex="1">
          <mxGeometry x="354" y="190" width="120" height="40" as="geometry" />
        </mxCell>
        <mxCell id="WIyWlLk6GJQsqaUBKTNV-8" value="Si" style="rounded=0;html=1;jettySize=auto;orthogonalLoop=1;fontSize=11;endArrow=block;endFill=0;strokeWidth=1;shadow=0;labelBackgroundColor=none;edgeStyle=orthogonalEdgeStyle;entryX=0.5;entryY=0;entryDx=0;entryDy=0;entryPerimeter=0;" parent="WIyWlLk6GJQsqaUBKTNV-1" source="WIyWlLk6GJQsqaUBKTNV-10" target="amFgFXvFA-CJ1mFteOLE-4" edge="1">
          <mxGeometry x="-0.2" y="16" relative="1" as="geometry">
            <mxPoint as="offset" />
            <mxPoint x="220" y="430" as="targetPoint" />
            <Array as="points">
              <mxPoint x="414" y="410" />
              <mxPoint x="414" y="410" />
            </Array>
          </mxGeometry>
        </mxCell>
        <mxCell id="WIyWlLk6GJQsqaUBKTNV-10" value="¿Existe el path?" style="rhombus;whiteSpace=wrap;html=1;shadow=0;fontFamily=Helvetica;fontSize=12;align=center;strokeWidth=1;spacing=6;spacingTop=-4;fillColor=#cdeb8b;strokeColor=#36393d;" parent="WIyWlLk6GJQsqaUBKTNV-1" vertex="1">
          <mxGeometry x="354" y="300" width="120" height="100" as="geometry" />
        </mxCell>
        <mxCell id="amFgFXvFA-CJ1mFteOLE-3" value="" style="rounded=0;html=1;jettySize=auto;orthogonalLoop=1;fontSize=11;endArrow=block;endFill=0;endSize=8;strokeWidth=1;shadow=0;labelBackgroundColor=none;edgeStyle=orthogonalEdgeStyle;exitX=0.5;exitY=1;exitDx=0;exitDy=0;entryX=0.5;entryY=0;entryDx=0;entryDy=0;" edge="1" parent="WIyWlLk6GJQsqaUBKTNV-1" source="WIyWlLk6GJQsqaUBKTNV-7" target="WIyWlLk6GJQsqaUBKTNV-10">
          <mxGeometry relative="1" as="geometry">
            <mxPoint x="170" y="250" as="sourcePoint" />
            <mxPoint x="220" y="280" as="targetPoint" />
            <Array as="points" />
          </mxGeometry>
        </mxCell>
        <mxCell id="amFgFXvFA-CJ1mFteOLE-4" value="¿El path es una ruta absoluta?" style="rhombus;whiteSpace=wrap;html=1;shadow=0;fontFamily=Helvetica;fontSize=12;align=center;strokeWidth=1;spacing=6;spacingTop=-4;fillColor=#cdeb8b;strokeColor=#36393d;" vertex="1" parent="WIyWlLk6GJQsqaUBKTNV-1">
          <mxGeometry x="342" y="445" width="144" height="110" as="geometry" />
        </mxCell>
        <mxCell id="amFgFXvFA-CJ1mFteOLE-7" value="No" style="rounded=0;html=1;jettySize=auto;orthogonalLoop=1;fontSize=11;endArrow=block;endFill=0;strokeWidth=1;shadow=0;labelBackgroundColor=none;edgeStyle=orthogonalEdgeStyle;" edge="1" parent="WIyWlLk6GJQsqaUBKTNV-1">
          <mxGeometry x="-0.2" y="16" relative="1" as="geometry">
            <mxPoint as="offset" />
            <mxPoint x="342" y="500" as="sourcePoint" />
            <mxPoint x="250" y="500" as="targetPoint" />
            <Array as="points">
              <mxPoint x="262" y="500" />
            </Array>
          </mxGeometry>
        </mxCell>
        <mxCell id="amFgFXvFA-CJ1mFteOLE-8" value="Si" style="rounded=0;html=1;jettySize=auto;orthogonalLoop=1;fontSize=11;endArrow=block;endFill=0;strokeWidth=1;shadow=0;labelBackgroundColor=none;edgeStyle=orthogonalEdgeStyle;entryX=0.5;entryY=0;entryDx=0;entryDy=0;entryPerimeter=0;" edge="1" parent="WIyWlLk6GJQsqaUBKTNV-1">
          <mxGeometry x="-0.2" y="16" relative="1" as="geometry">
            <mxPoint as="offset" />
            <mxPoint x="413" y="557" as="sourcePoint" />
            <mxPoint x="413" y="607" as="targetPoint" />
            <Array as="points">
              <mxPoint x="413" y="567" />
              <mxPoint x="413" y="567" />
            </Array>
          </mxGeometry>
        </mxCell>
        <mxCell id="amFgFXvFA-CJ1mFteOLE-9" value="Convertir a una ruta absoluta" style="rounded=1;whiteSpace=wrap;html=1;fillColor=#cdeb8b;strokeColor=#36393d;" vertex="1" parent="WIyWlLk6GJQsqaUBKTNV-1">
          <mxGeometry x="140" y="475" width="110" height="50" as="geometry" />
        </mxCell>
        <mxCell id="amFgFXvFA-CJ1mFteOLE-10" value="¿Es un directorio?" style="rhombus;whiteSpace=wrap;html=1;shadow=0;fontFamily=Helvetica;fontSize=12;align=center;strokeWidth=1;spacing=6;spacingTop=-4;fillColor=#cdeb8b;strokeColor=#36393d;" vertex="1" parent="WIyWlLk6GJQsqaUBKTNV-1">
          <mxGeometry x="354" y="607" width="118" height="110" as="geometry" />
        </mxCell>
        <mxCell id="amFgFXvFA-CJ1mFteOLE-11" value="Recorrer el directorio" style="rounded=1;whiteSpace=wrap;html=1;fillColor=#cdeb8b;strokeColor=#36393d;" vertex="1" parent="WIyWlLk6GJQsqaUBKTNV-1">
          <mxGeometry x="140" y="637.5" width="110" height="49" as="geometry" />
        </mxCell>
        <mxCell id="amFgFXvFA-CJ1mFteOLE-12" value="¿Es un archivo .md?" style="rhombus;whiteSpace=wrap;html=1;shadow=0;fontFamily=Helvetica;fontSize=12;align=center;strokeWidth=1;spacing=6;spacingTop=-4;fillColor=#cdeb8b;strokeColor=#36393d;" vertex="1" parent="WIyWlLk6GJQsqaUBKTNV-1">
          <mxGeometry x="354" y="755" width="118" height="110" as="geometry" />
        </mxCell>
        <mxCell id="amFgFXvFA-CJ1mFteOLE-125" value="Leer archivo .md" style="rounded=1;whiteSpace=wrap;html=1;fillColor=#cdeb8b;strokeColor=#36393d;" vertex="1" parent="WIyWlLk6GJQsqaUBKTNV-1">
          <mxGeometry x="364" y="910" width="110" height="49" as="geometry" />
        </mxCell>
        <mxCell id="amFgFXvFA-CJ1mFteOLE-126" value="¿Se encontraron links?" style="rhombus;whiteSpace=wrap;html=1;shadow=0;fontFamily=Helvetica;fontSize=12;align=center;strokeWidth=1;spacing=6;spacingTop=-4;fillColor=#cdeb8b;strokeColor=#36393d;" vertex="1" parent="WIyWlLk6GJQsqaUBKTNV-1">
          <mxGeometry x="520" y="879.5" width="120" height="110" as="geometry" />
        </mxCell>
        <mxCell id="amFgFXvFA-CJ1mFteOLE-127" value="Imprimir mensaje:&lt;br&gt;No se encontraron los links." style="shape=parallelogram;perimeter=parallelogramPerimeter;whiteSpace=wrap;html=1;fixedSize=1;fillColor=#cdeb8b;strokeColor=#36393d;" vertex="1" parent="WIyWlLk6GJQsqaUBKTNV-1">
          <mxGeometry x="320" y="1000" width="180" height="70" as="geometry" />
        </mxCell>
        <mxCell id="amFgFXvFA-CJ1mFteOLE-128" value="Imprimir un mensaje: La ruta no existe" style="rounded=1;whiteSpace=wrap;html=1;fillColor=#cdeb8b;strokeColor=#36393d;" vertex="1" parent="WIyWlLk6GJQsqaUBKTNV-1">
          <mxGeometry x="20" y="1000" width="120" height="60" as="geometry" />
        </mxCell>
        <mxCell id="amFgFXvFA-CJ1mFteOLE-129" value="Extraer los archivos.md&amp;nbsp;&lt;br&gt;[{ href, text, file}]" style="rounded=1;whiteSpace=wrap;html=1;fillColor=#cdeb8b;strokeColor=#36393d;" vertex="1" parent="WIyWlLk6GJQsqaUBKTNV-1">
          <mxGeometry x="690" y="904.5" width="120" height="60" as="geometry" />
        </mxCell>
        <mxCell id="amFgFXvFA-CJ1mFteOLE-131" value="¿Validate?" style="rhombus;whiteSpace=wrap;html=1;shadow=0;fontFamily=Helvetica;fontSize=12;align=center;strokeWidth=1;spacing=6;spacingTop=-4;fillColor=#cdeb8b;strokeColor=#36393d;" vertex="1" parent="WIyWlLk6GJQsqaUBKTNV-1">
          <mxGeometry x="880" y="879.5" width="120" height="110" as="geometry" />
        </mxCell>
        <mxCell id="amFgFXvFA-CJ1mFteOLE-133" value="Retornar una promesa que retorna un arreglo de objetos:&lt;br&gt;[{href, file, text,status, ok }]" style="shape=parallelogram;perimeter=parallelogramPerimeter;whiteSpace=wrap;html=1;fixedSize=1;fillColor=#cdeb8b;strokeColor=#36393d;" vertex="1" parent="WIyWlLk6GJQsqaUBKTNV-1">
          <mxGeometry x="1080" y="899.5" width="180" height="70" as="geometry" />
        </mxCell>
        <mxCell id="amFgFXvFA-CJ1mFteOLE-134" value="Retornar una&lt;br&gt;&amp;nbsp;promesa que&lt;br&gt;retorna un arreglo&lt;br&gt;&amp;nbsp;de objetos:&amp;nbsp; &amp;nbsp; &lt;br&gt;[{ href, text, file}]&lt;br&gt;&amp;nbsp;" style="shape=parallelogram;perimeter=parallelogramPerimeter;whiteSpace=wrap;html=1;fixedSize=1;fillColor=#cdeb8b;strokeColor=#36393d;" vertex="1" parent="WIyWlLk6GJQsqaUBKTNV-1">
          <mxGeometry x="855" y="1030" width="170" height="90" as="geometry" />
        </mxCell>
        <mxCell id="amFgFXvFA-CJ1mFteOLE-135" value="Si" style="rounded=0;html=1;jettySize=auto;orthogonalLoop=1;fontSize=11;endArrow=block;endFill=0;strokeWidth=1;shadow=0;labelBackgroundColor=none;edgeStyle=orthogonalEdgeStyle;entryX=0.5;entryY=0;entryDx=0;entryDy=0;entryPerimeter=0;" edge="1" parent="WIyWlLk6GJQsqaUBKTNV-1">
          <mxGeometry x="-0.2" y="16" relative="1" as="geometry">
            <mxPoint as="offset" />
            <mxPoint x="413" y="716" as="sourcePoint" />
            <mxPoint x="413" y="756" as="targetPoint" />
            <Array as="points">
              <mxPoint x="413" y="721" />
            </Array>
          </mxGeometry>
        </mxCell>
        <mxCell id="amFgFXvFA-CJ1mFteOLE-137" value="Si" style="rounded=0;html=1;jettySize=auto;orthogonalLoop=1;fontSize=11;endArrow=block;endFill=0;strokeWidth=1;shadow=0;labelBackgroundColor=none;edgeStyle=orthogonalEdgeStyle;entryX=0.5;entryY=0;entryDx=0;entryDy=0;entryPerimeter=0;exitX=0.5;exitY=1;exitDx=0;exitDy=0;" edge="1" parent="WIyWlLk6GJQsqaUBKTNV-1">
          <mxGeometry x="-0.2" y="16" relative="1" as="geometry">
            <mxPoint as="offset" />
            <mxPoint x="412" y="866" as="sourcePoint" />
            <mxPoint x="413" y="911" as="targetPoint" />
            <Array as="points">
              <mxPoint x="413" y="866" />
            </Array>
          </mxGeometry>
        </mxCell>
        <mxCell id="amFgFXvFA-CJ1mFteOLE-141" value="No" style="rounded=0;html=1;jettySize=auto;orthogonalLoop=1;fontSize=11;endArrow=block;endFill=0;strokeWidth=1;shadow=0;labelBackgroundColor=none;edgeStyle=orthogonalEdgeStyle;entryX=1;entryY=0.5;entryDx=0;entryDy=0;" edge="1" parent="WIyWlLk6GJQsqaUBKTNV-1" target="amFgFXvFA-CJ1mFteOLE-11">
          <mxGeometry x="-0.2" y="16" relative="1" as="geometry">
            <mxPoint as="offset" />
            <mxPoint x="352" y="661.5" as="sourcePoint" />
            <mxPoint x="260" y="661.5" as="targetPoint" />
            <Array as="points" />
          </mxGeometry>
        </mxCell>
        <mxCell id="amFgFXvFA-CJ1mFteOLE-143" value="False" style="rounded=0;html=1;jettySize=auto;orthogonalLoop=1;fontSize=11;endArrow=block;endFill=0;strokeWidth=1;shadow=0;labelBackgroundColor=none;edgeStyle=orthogonalEdgeStyle;entryX=0.5;entryY=0;entryDx=0;entryDy=0;entryPerimeter=0;jumpSize=4;" edge="1" parent="WIyWlLk6GJQsqaUBKTNV-1">
          <mxGeometry x="-0.0652" y="29" relative="1" as="geometry">
            <mxPoint as="offset" />
            <mxPoint x="940" y="990" as="sourcePoint" />
            <mxPoint x="940.5" y="1030" as="targetPoint" />
            <Array as="points">
              <mxPoint x="940" y="1000" />
              <mxPoint x="941" y="1000" />
            </Array>
          </mxGeometry>
        </mxCell>
        <mxCell id="amFgFXvFA-CJ1mFteOLE-145" value="True" style="rounded=0;html=1;jettySize=auto;orthogonalLoop=1;fontSize=11;endArrow=block;endFill=0;strokeWidth=1;shadow=0;labelBackgroundColor=none;edgeStyle=orthogonalEdgeStyle;jumpSize=4;" edge="1" parent="WIyWlLk6GJQsqaUBKTNV-1" target="amFgFXvFA-CJ1mFteOLE-133">
          <mxGeometry x="-0.1128" y="14" relative="1" as="geometry">
            <mxPoint as="offset" />
            <mxPoint x="1000" y="934.36" as="sourcePoint" />
            <mxPoint x="1080" y="934.36" as="targetPoint" />
            <Array as="points" />
          </mxGeometry>
        </mxCell>
      </root>
    </mxGraphModel>
  </diagram>
</mxfile>
